<?xml version="1.0" encoding="utf-8"?>
<!-- Generator: Adobe Illustrator 23.0.1, SVG Export Plug-In . SVG Version: 6.00 Build 0)  -->
<svg version="1.1" id="Layer_1" xmlns="http://www.w3.org/2000/svg" xmlns:xlink="http://www.w3.org/1999/xlink" x="0px" y="0px"
	 viewBox="0 0 1920 150" style="enable-background:new 0 0 1920 150;" xml:space="preserve">
<style type="text/css">
	.st0{fill:url(#SVGID_1_);}
</style>
<linearGradient id="SVGID_1_" gradientUnits="userSpaceOnUse" x1="960" y1="-638.0109" x2="960" y2="-488" gradientTransform="matrix(1 0 0 1 0 638.0109)">
	<stop  offset="0" style="stop-color:#5F8EFB"/>
	<stop  offset="0" style="stop-color:#5F8EFB"/>
	<stop  offset="0" style="stop-color:#5F8EFB"/>
	<stop  offset="0" style="stop-color:#6391F9"/>
	<stop  offset="0" style="stop-color:#7099F4"/>
	<stop  offset="0" style="stop-color:#84A7EC"/>
	<stop  offset="1.000000e-03" style="stop-color:#6391F9"/>
	<stop  offset="2.000000e-03" style="stop-color:#7099F4"/>
	<stop  offset="0.186" style="stop-color:#6C96F3"/>
	<stop  offset="0.376" style="stop-color:#5F8CEF"/>
	<stop  offset="0.569" style="stop-color:#4B7CE9"/>
	<stop  offset="0.764" style="stop-color:#2E66E1"/>
	<stop  offset="0.96" style="stop-color:#094AD6"/>
	<stop  offset="1" style="stop-color:#0043D4"/>
</linearGradient>
<path class="st0" d="M1920,0.6c-24-0.3-40,3.2-62,9.7c-33.4,9.9-35.2,8.6-87-0.7c-33.7-6.1-38.3,8.1-120,28.9
	c-75.7,19.3-126.9,31.6-179,11c-32.9-13.1-26.3-23.4-57-34.9c-60.9-22.6-101.1,12.9-183,19.9c-67.8,5.8-64.6-16.4-146-18.9
	c-107.5-3.4-116.6,35.2-232,42.8c-68.4,4.5-121.8-5.3-223-23.9C520.9,14.3,526.5,3.7,471,0.6C366-5.2,330.2,32,232,40.4
	C178.9,45,100.1,41.8,0,0.6V150h1920V0.6z"/>
</svg>
