<?xml version="1.0" encoding="utf-8"?>
<!-- Generator: Adobe Illustrator 23.0.1, SVG Export Plug-In . SVG Version: 6.00 Build 0)  -->
<svg version="1.1" id="Layer_1" xmlns="http://www.w3.org/2000/svg" xmlns:xlink="http://www.w3.org/1999/xlink" x="0px" y="0px"
	 viewBox="0 0 1920 150" style="enable-background:new 0 0 1920 150;" xml:space="preserve">
<style type="text/css">
	.st0{fill:url(#SVGID_1_);}
</style>
<linearGradient id="SVGID_1_" gradientUnits="userSpaceOnUse" x1="960" y1="1430.0109" x2="960" y2="1280" gradientTransform="matrix(1 0 0 -1 0 1430.0109)">
	<stop  offset="0" style="stop-color:#E002C2"/>
	<stop  offset="0.2738" style="stop-color:#DD02C0"/>
	<stop  offset="0.4385" style="stop-color:#D502B8"/>
	<stop  offset="0.5743" style="stop-color:#C702AB"/>
	<stop  offset="0.6945" style="stop-color:#B30199"/>
	<stop  offset="0.8043" style="stop-color:#980181"/>
	<stop  offset="0.905" style="stop-color:#780164"/>
	<stop  offset="0.995" style="stop-color:#550044"/>
</linearGradient>
<path class="st0" d="M1920,0.6c-24-0.3-40,3.2-62,9.7c-33.4,9.9-35.2,8.6-87-0.7c-33.7-6.1-38.3,8.1-120,28.9
	c-75.7,19.3-126.9,31.6-179,11c-32.9-13.1-26.3-23.4-57-34.9c-60.9-22.6-101.1,12.9-183,19.9c-67.8,5.8-64.6-16.4-146-18.9
	c-107.5-3.4-116.6,35.2-232,42.8c-68.4,4.5-121.8-5.3-223-23.9C520.9,14.3,526.5,3.7,471,0.6C366-5.2,330.2,32,232,40.4
	C178.9,45,100.1,41.8,0,0.6V150h1920V0.6z"/>
</svg>
